<svg width="32" height="32" viewBox="0 0 32 32" fill="none" xmlns="http://www.w3.org/2000/svg">
  <rect width="32" height="32" rx="6" fill="#1A1A2E"/>
  <path d="M16 13.5C15 11 10 9 8 8.5" stroke="#6366F1" stroke-width="1.2" stroke-linecap="round" opacity="0.5"/>
  <path d="M16 13.5C18 11 23 8.5 24.5 7.5" stroke="#6366F1" stroke-width="1.2" stroke-linecap="round" opacity="0.5"/>
  <path d="M13.5 16C10 16 6.5 19 5.5 21" stroke="#818CF8" stroke-width="1" stroke-linecap="round" opacity="0.4"/>
  <path d="M18.5 16C22 16 25.5 19 26.5 21" stroke="#818CF8" stroke-width="1" stroke-linecap="round" opacity="0.4"/>
  <path d="M16 13C16 10 16 6 16 5.5" stroke="#A5B4FC" stroke-width="0.8" stroke-linecap="round" opacity="0.35"/>
  <path d="M16 19C16 22 16 26 16 26.5" stroke="#818CF8" stroke-width="1" stroke-linecap="round" opacity="0.4"/>
  <path d="M14.5 18.5C12.5 22 11 26 10.5 27" stroke="#A5B4FC" stroke-width="0.7" stroke-linecap="round" opacity="0.3"/>
  <path d="M17.5 18.5C19.5 22 22 26 23.5 27" stroke="#A5B4FC" stroke-width="0.7" stroke-linecap="round" opacity="0.3"/>
  <circle cx="16" cy="16" r="3.5" fill="#6366F1"/>
  <circle cx="6" cy="8" r="2.2" fill="#818CF8"/>
  <circle cx="26" cy="7" r="2.4" fill="#6366F1"/>
  <circle cx="5" cy="22" r="2" fill="#A5B4FC"/>
  <circle cx="27" cy="22" r="2.2" fill="#818CF8"/>
  <circle cx="16" cy="4" r="1.7" fill="#A5B4FC"/>
  <circle cx="16" cy="28" r="2" fill="#818CF8"/>
  <circle cx="10" cy="28" r="1.4" fill="#C7D2FE"/>
  <circle cx="24" cy="28" r="1.5" fill="#C7D2FE"/>
  <circle cx="12" cy="11" r="1" fill="#818CF8" opacity="0.7"/>
  <circle cx="20" cy="10.5" r="1" fill="#818CF8" opacity="0.7"/>
  <circle cx="9" cy="18" r="0.9" fill="#A5B4FC" opacity="0.5"/>
  <circle cx="23" cy="18" r="0.9" fill="#A5B4FC" opacity="0.5"/>
</svg>