<svg width="32" height="32" viewBox="0 0 32 32" fill="none" xmlns="http://www.w3.org/2000/svg">
  <path d="M16 13.5C15 11 10 9 8 8.5" stroke="#4338CA" stroke-width="1.5" stroke-linecap="round"/>
  <path d="M16 13.5C18 11 23 8.5 24.5 7.5" stroke="#4338CA" stroke-width="1.5" stroke-linecap="round"/>
  <path d="M13.5 16C10 16 6.5 19 5.5 21" stroke="#4F46E5" stroke-width="1.3" stroke-linecap="round"/>
  <path d="M18.5 16C22 16 25.5 19 26.5 21" stroke="#4F46E5" stroke-width="1.3" stroke-linecap="round"/>
  <path d="M16 13C16 10 16 6 16 5.5" stroke="#4F46E5" stroke-width="1.2" stroke-linecap="round"/>
  <path d="M16 19C16 22 16 26 16 26.5" stroke="#4F46E5" stroke-width="1.3" stroke-linecap="round"/>
  <path d="M14.5 18.5C12.5 22 11 26 10.5 27" stroke="#6366F1" stroke-width="1" stroke-linecap="round"/>
  <path d="M17.5 18.5C19.5 22 22 26 23.5 27" stroke="#6366F1" stroke-width="1" stroke-linecap="round"/>
  <circle cx="16" cy="16" r="3.5" fill="#4338CA"/>
  <circle cx="6" cy="8" r="2.2" fill="#4F46E5"/>
  <circle cx="26" cy="7" r="2.4" fill="#4338CA"/>
  <circle cx="5" cy="22" r="2" fill="#6366F1"/>
  <circle cx="27" cy="22" r="2.2" fill="#4F46E5"/>
  <circle cx="16" cy="4" r="1.7" fill="#6366F1"/>
  <circle cx="16" cy="28" r="2" fill="#4F46E5"/>
  <circle cx="10" cy="28" r="1.4" fill="#818CF8"/>
  <circle cx="24" cy="28" r="1.5" fill="#818CF8"/>
  <circle cx="12" cy="11" r="1" fill="#4F46E5"/>
  <circle cx="20" cy="10.5" r="1" fill="#4F46E5"/>
  <circle cx="9" cy="18" r="0.9" fill="#6366F1"/>
  <circle cx="23" cy="18" r="0.9" fill="#6366F1"/>
</svg>
